PathFileType	4	(X/Y/Z)	Patient4_TMGait_0pt8_01_right_05.trc.trc
DataRate	CameraRate	NumFrames	NumMarkers	Units	OrigDataRate	OrigDataStartFrame	OrigNumFrames
88.607594936709	88.607594936709	4	33	mm	88.607594936709	1	       141
Frame#	Time	Sacral			L.Shoulder			Chest			R.Shoulder			Neck			R.ASIS			L.ASIS			R.Thigh.Superior			R.Thigh.Lateral			R.Thigh.Inferior			R.Patella			L.Thigh.Superior			L.Thigh.Lateral			L.Thigh.Inferior			L.Patella			L.Shank.Superior			L.Shank.Lateral			L.Shank.Inferior			R.Shank.Superior			R.Shank.Lateral			R.Shank.Inferior			R.Heel			R.Midfoot.Superior			R.Midfoot.Lateral			R.Toe			L.Heel			L.Midfoot.Lateral			L.Midfoot.Superior			L.Toe			L.Elbow			L.Wrist			R.Elbow			R.Wrist			
		X1	Y1	Z1	X2	Y2	Z2	X3	Y3	Z3	X4	Y4	Z4	X5	Y5	Z5	X6	Y6	Z6	X7	Y7	Z7	X8	Y8	Z8	X9	Y9	Z9	X10	Y10	Z10	X11	Y11	Z11	X12	Y12	Z12	X13	Y13	Z13	X14	Y14	Z14	X15	Y15	Z15	X16	Y16	Z16	X17	Y17	Z17	X18	Y18	Z18	X19	Y19	Z19	X20	Y20	Z20	X21	Y21	Z21	X22	Y22	Z22	X23	Y23	Z23	X24	Y24	Z24	X25	Y25	Z25	X26	Y26	Z26	X27	Y27	Z27	X28	Y28	Z28	X29	Y29	Z29	X30	Y30	Z30	X31	Y31	Z31	X32	Y32	Z32	X33	Y33	Z33	

1	5.320000000000	813.904465801252	1010.055552531388	441.455718054744	996.104414249298	1435.647102284376	267.018160477003	1089.899591660791	1368.649100278143	434.905794118168	995.638848565742	1442.144498690699	603.951341837136	974.717517817451	1498.395059457743	423.234071529218	1035.125015464100	942.459496590246	564.327493701237	1033.494562792107	965.984134412294	291.279614845118	1113.413814939759	768.261456955931	550.853051159410	1061.461331557233	649.486236347302	623.516573389791	1158.687616886882	606.535284359522	556.138052404832	1170.479971196635	493.206272309357	580.182334421875	1074.736523555068	752.476579481540	316.693144612822	979.494592968667	638.065156616114	263.450921474341	1062.805108789098	558.401914307322	325.195956916137	1060.548379392420	490.758933866112	336.866873477578	1035.852751188024	419.693873648400	332.203442288737	946.441826104630	302.090888733418	287.484524190916	1002.684932413553	195.298292289739	362.501508229293	1092.057280298032	420.110938140949	577.993460304369	964.137164478746	384.787599860792	627.147081858050	950.357421302165	277.036674752894	575.842756915344	749.163461284271	218.365614623337	529.767615319500	914.964755516734	161.283809962021	584.076167318254	802.232214159923	157.653786826206	607.014205116190	978.173778376931	49.282600233578	614.526808720850	877.853090913912	38.501723858226	415.005517115963	950.010983850818	35.327789982163	332.379314989061	1033.347623760739	97.196794621834	356.403721513427	1161.030813649207	47.754027569051	326.722409069925	1009.475527594424	1087.741004554134	135.497146582040	1121.864582086547	851.671285843486	137.884238202810	956.318995590622	1095.360893177045	716.742689525609	1161.056654554390	943.733763959650	673.719788296543	
2	5.331285714286	812.523187861017	1009.981390093748	439.580791165816	997.941413558471	1435.512694332133	266.764123050844	1089.754390353507	1368.118222895341	435.539273447008	993.966012818696	1441.596914513322	603.753360084513	975.000795615464	1498.212633733894	422.926046743790	1033.217962623731	943.091878170417	564.748903412900	1034.466363128919	966.164736108735	291.034091812006	1113.914941970310	772.062590002170	550.226435698744	1065.292145847516	652.358146658124	623.295412847622	1162.623146549863	611.277960309724	555.059979147444	1177.729992745085	499.112295086798	579.587306883356	1071.968178063202	751.295225928209	318.064089297042	975.955345119950	637.838889701462	263.342467826329	1057.259311040819	557.358144701579	326.031575302701	1053.962982529985	489.846927006166	337.769917006603	1029.061174358270	419.000161887123	332.749673393405	939.297598764924	301.953350876878	287.436598230398	994.128650482591	194.830237647468	362.832146382127	1102.655407554674	423.495582876667	578.238051504612	977.433005052748	381.952378712407	628.155036681096	969.089563146108	273.603300283535	577.310734629453	771.939770105473	204.262214632620	532.265657188460	940.051721182598	157.084742245513	587.112347611927	827.956839077153	147.501881723506	609.974605769496	1008.576745964945	48.760681783830	617.809967024656	868.303122167743	38.476753866790	415.009204229561	940.511070303149	35.341020778408	332.386282822533	1023.878276387617	97.049133546160	356.619605327513	1151.618247081281	47.392370865463	326.780978055213	1019.381022954287	1090.037739005255	132.076522753750	1142.508790579115	860.111731322638	134.873206635211	945.192688631738	1095.408914442611	714.367530011879	1133.670019024178	926.098675399810	678.990972039962	
3	5.342571428571	811.179952741374	1009.888626326978	437.754984044677	999.778373442440	1435.373621496310	266.535201421485	1089.616910632537	1367.587227745065	436.190066114148	992.306319595240	1441.050996397647	603.568228247024	975.284326741490	1498.026066642339	422.639551349395	1031.315493496458	943.685110209513	565.172025512778	1035.366241283326	966.315090951692	290.835567629203	1114.359869881198	775.764834610946	549.616115009327	1068.991666902162	655.155739437098	623.057673750631	1166.382126347526	615.886236913229	553.971206865931	1184.750808798365	504.916227281768	578.988174174035	1069.244970417044	750.131024593203	319.407270069131	972.453905415985	637.618087075427	263.238057858109	1051.776497243829	556.326964785799	326.840376792781	1047.452017142391	488.951021150896	338.645996093334	1022.349457579958	418.318021443386	333.281350736260	932.237879258828	301.819374918470	287.393462009024	985.667058698472	194.369418131996	363.159883346189	1113.035154688969	426.810847087314	578.466211353804	990.594150541047	379.075394118672	629.173953300260	987.691160240741	270.187899327825	578.777681915022	794.678152060904	190.255882933257	534.791234763325	965.003153875585	152.903370359476	590.081030894361	853.608649112139	137.430627119584	612.928481698765	1038.805361416207	48.318171430350	621.033064076368	858.881556247416	38.457902081876	415.008812336818	931.135075068499	35.353698644489	332.393423463646	1014.536400315472	96.905728332437	356.827660088378	1142.330575069867	47.029263153554	326.838897516912	1029.067303938899	1092.328726526520	128.734358287634	1162.804700214060	868.568620126517	131.983046723641	934.342783424854	1095.437609810155	712.004158809576	1106.390321046725	909.012430409882	684.160774959182	
4	5.353857142857	809.920850688292	1009.748134002858	436.020020869772	1001.626215138489	1435.216110519713	266.368900356749	1089.499085573856	1367.043116314887	436.889373274179	990.671515468838	1440.494941084433	603.418009992078	975.570808495978	1497.818251886268	422.406425938194	1029.434471909319	944.194787359157	565.609226107918	1036.135781804794	966.394307467977	290.735425011047	1114.675285063078	779.233627077325	549.052729985902	1072.389127105967	657.769232462539	622.807836888645	1169.766068880545	620.192247743578	552.893211731092	1191.288004637025	510.511963527355	578.394633478374	1066.573496628080	748.975024975656	320.693067686823	968.960054996166	637.408550540059	263.140432259252	1046.331218132340	555.311805622570	327.594271671275	1040.994260055719	488.079334828634	339.463520801525	1015.692775990736	417.660284914197	333.779678560799	925.237096149958	301.697084259712	287.355236608503	977.286626868921	193.924955498199	363.477947578732	1123.015290301424	429.998692822496	578.682788251258	1003.592100768757	376.090628123445	630.231389508897	1006.202135493779	266.831549261336	580.263783385527	817.637749476711	176.408699552166	537.382116313801	989.946746791001	148.806572776157	592.942686156062	879.417967954712	127.517773747928	615.879454548672	1068.967469371278	48.140144203536	624.146449967902	849.603923762932	38.451218825701	415.001645309913	921.893835196562	35.365247580146	332.401240537103	1005.336496925470	96.770148498128	357.019926549096	1133.178963392203	46.664344382228	326.895466072490	1038.380976130474	1094.621618906155	125.541244232624	1182.542693424976	877.206482051152	129.353485398604	923.924002085409	1095.472616203580	709.682575762761	1079.135302133331	893.050854034275	689.155929793613	
